<svg width="15" height="17" xmlns="http://www.w3.org/2000/svg" xmlns:xlink="http://www.w3.org/1999/xlink" xmlns:svgjs="http://svgjs.com/svgjs" viewBox="0.063 0 14.874 17" fill="#efebe4"><svg xmlns="http://www.w3.org/2000/svg" width="15" height="17" viewBox="2 1.999 14 16.001"><path paint-order="stroke fill markers" fill-rule="evenodd" d="M4.5 1.999h9a2.5 2.5 0 0 1 2.5 2.5v11a2.5 2.5 0 0 1-2.5 2.5h-9A2.5 2.5 0 0 1 2 15.5v-11a2.5 2.5 0 0 1 2.5-2.5zm.5 7h8a2 2 0 0 1 2 2v4a2 2 0 0 1-2 2H5a2 2 0 0 1-2-2v-4a2 2 0 0 1 2-2zm-2 0h1v2H3v-2zm11 0h1v2h-1v-2zM9 4.5c2.76 0 4.997 2.35 4.997 5.248S11.76 14.996 9 14.996s-4.998-2.35-4.998-5.247C4.002 6.851 6.24 4.501 9 4.501zm0 1.495a3.998 3.998 0 0 1 3.995 4c0 2.21-1.789 4-3.995 4a3.998 3.998 0 0 1-3.996-4 3.998 3.998 0 0 1 3.996-4zm3-1.997h2v2h-2v-2z"/></svg></svg>