<svg width="17" height="14" xmlns="http://www.w3.org/2000/svg" xmlns:xlink="http://www.w3.org/1999/xlink" xmlns:svgjs="http://svgjs.com/svgjs" viewBox="0 0.096 17 13.808" fill="#efebe4"><svg xmlns="http://www.w3.org/2000/svg" width="17" height="14" viewBox="2 1.999 16 12.996"><path paint-order="stroke fill markers" fill-rule="evenodd" d="M18 3.495l-1.5 1.497v.25c0 .273-.044.534-.108.787-.035 2.059-.693 4.79-3.392 6.944-5.31 4.237-11 .498-11 .498 4.5 0 4.5-1.497 4.5-1.497-1 0-3-1.994-3-1.994.5.498 1.5 0 1.5 0-2.5-1.497-2.5-2.993-2.5-2.993.5.498 1.5 0 1.5 0-2.5-1.995-1-4.49-1-4.49.5 2.495 7 3.492 7 3.492l.083-.041C10.032 5.72 10 5.235 10 4.992c0-1.79 1.455-2.993 3.25-2.993.988 0 1.862.45 2.458 1.143L16 2.996 17.5 2l-1 1.995 1.5-.499z"/></svg></svg>